name C:\Users\tom_v\My Drive\PostDoc\MusculoskeletalSpecialization\ResultsSprinting\Case_4\motion.mot
datacolumns 32
datarows 7
range 0.00000000 0.03382036
endheader 
time	pelvis_tilt	pelvis_list	pelvis_rotation	pelvis_tx	pelvis_ty	pelvis_tz	hip_flexion_r	hip_adduction_r	hip_rotation_r	knee_angle_r	ankle_angle_r	subtalar_angle_r	mtp_angle_r	hip_flexion_l	hip_adduction_l	hip_rotation_l	knee_angle_l	ankle_angle_l	subtalar_angle_l	mtp_angle_l	lumbar_extension	lumbar_bending	lumbar_rotation	arm_flex_r	arm_add_r	arm_rot_r	elbow_flex_r	arm_flex_l	arm_add_l	arm_rot_l	elbow_flex_l	
          0.00000000	        -13.16376176	         -1.12688851	         -0.72193653	          0.00000000	          0.95792055	         -0.00263239	         45.49588162	          2.97912985	          0.81366658	        -24.47510553	         19.68935461	          0.62335735	          0.54063143	          3.37832953	         -1.06331599	         -1.51038322	        -35.99812188	        -11.48000599	          8.18390123	         18.93729100	        -12.03165095	          3.14351162	         -2.57340292	        -12.39556036	        -13.49340401	         -0.45154612	        110.17162938	         31.32439943	          1.53780477	         10.45044051	          0.01805843	
          0.00563673	        -13.13053167	         -1.08375646	         -0.63421826	          0.01934351	          0.95654465	         -0.00244688	         45.24403583	          3.01822258	          1.11218542	        -23.83460102	         18.91604667	          0.43189335	          0.52534031	          3.60853045	         -1.21067003	         -1.66348058	        -37.29985969	        -11.23932314	          8.53118381	         17.62056652	        -11.97897326	          3.14913749	         -2.54986144	        -12.01199988	        -13.49640028	         -0.29385001	        108.78783395	         31.15201737	          1.62322637	         10.53866859	          0.09719245	
          0.01127345	        -13.09218661	         -1.04092608	         -0.54398358	          0.03867973	          0.95492933	         -0.00224999	         45.00411101	          3.07078687	          1.40736446	        -23.59583068	         17.97249506	          0.24278125	          0.51238655	          3.94620670	         -1.35034456	         -1.81298726	        -38.63177037	        -10.73463969	          8.80547821	         16.39654158	        -11.92277150	          3.15005167	         -2.51621285	        -11.52485419	        -13.49240310	         -0.06955563	        107.18151163	         30.94209563	          1.68951044	         10.64504363	          0.26931347	
          0.01691018	        -13.04959782	         -0.99801814	         -0.45135871	          0.05800004	          0.95308701	         -0.00204550	         44.77948875	          3.13743078	          1.69299241	        -23.81017857	         16.85055320	          0.02174120	          0.50155872	          4.39456028	         -1.48058190	         -1.95959307	        -39.99420806	        -10.00974521	          9.01139969	         15.25714899	        -11.86495979	          3.14694580	         -2.47182720	        -10.93467276	        -13.47976415	          0.21775964	        105.35788134	         30.68609936	          1.73203409	         10.76485322	          0.56750139	
          0.02254691	        -13.00338088	         -0.96010132	         -0.35653439	          0.07729883	          0.95104451	         -0.00183409	         44.57854828	          3.22429552	          1.97549889	        -24.60221958	         15.51537928	         -0.19219278	          0.49493179	          4.95715609	         -1.60595118	         -2.10446386	        -41.39365069	         -9.08852248	          9.15236230	         14.19613574	        -11.80635895	          3.14579235	         -2.41639337	        -10.23993116	        -13.45724792	          0.56587910	        103.31692123	         30.37382406	          1.74585909	         10.89304519	          1.02536067	
          0.02818363	        -12.95481950	         -0.92456113	         -0.25826992	          0.09657447	          0.94885744	         -0.00161656	         44.35454828	          3.32218256	          2.25521646	        -25.90139875	         14.08694241	         -0.43918457	          0.44424369	          5.63486813	         -1.72174460	         -2.24533554	        -42.82759924	         -8.00182837	          9.23073470	         13.20732856	        -11.74710380	          3.14108301	         -2.35136890	         -9.43832432	        -13.41976369	          0.97165882	        101.04704895	         29.99533170	          1.72514958	         11.02927974	          1.67454240	
          0.03382036	        -12.90579201	         -0.89195643	         -0.15478580	          0.11581676	          0.94659873	         -0.00139011	         44.01220058	          3.42559347	          2.53523750	        -27.25205363	         13.45372107	         -0.72102485	          0.38145127	          6.42811848	         -1.82808213	         -2.38116368	        -44.29315916	         -6.77489173	          9.25162060	         12.28579370	        -11.68767764	          3.13049703	         -2.28024669	         -8.52193139	        -13.36132459	          1.43544012	         98.52938650	         29.54092681	          1.66245342	         11.17068879	          2.54746498	
